<svg width="29" height="29" viewBox="0 0 29 29" fill="none" xmlns="http://www.w3.org/2000/svg">
<path d="M14.5 8.66667V20.3333M8.66667 14.5L20.3333 14.5M15.9583 27.625H13.0417C8.95795 27.625 6.91609 27.625 5.35632 26.8303C3.98431 26.1312 2.86882 25.0157 2.16974 23.6437C1.375 22.0839 1.375 20.042 1.375 15.9583L1.375 13.0417C1.375 8.95795 1.375 6.91609 2.16974 5.35632C2.86882 3.9843 3.98431 2.86882 5.35632 2.16974C6.91609 1.375 8.95795 1.375 13.0417 1.375L15.9583 1.375C20.0421 1.375 22.0839 1.375 23.6437 2.16974C25.0157 2.86882 26.1312 3.9843 26.8303 5.35632C27.625 6.91609 27.625 8.95795 27.625 13.0417V15.9583C27.625 20.042 27.625 22.0839 26.8303 23.6437C26.1312 25.0157 25.0157 26.1312 23.6437 26.8303C22.0839 27.625 20.042 27.625 15.9583 27.625Z" stroke="#1E2437" stroke-width="2" stroke-linecap="round" stroke-linejoin="round"/>
</svg>
