<svg width="32" height="32" viewBox="0 0 32 32" fill="none" xmlns="http://www.w3.org/2000/svg">
<g clip-path="url(#clip0_29_328)">
<path d="M10.4445 15.7778L13.2222 13.3611L16.5556 14.9722L21.5556 12.1528" stroke="#FF364B" stroke-width="2" stroke-linecap="round" stroke-linejoin="round"/>
</g>
<path d="M17.8568 26.9399C17.2978 27.2839 17.0183 27.4559 16.5837 27.5534C16.2595 27.6262 15.7405 27.6262 15.4163 27.5534C14.9816 27.4559 14.7021 27.2839 14.1431 26.9399C10.4783 24.6844 2.66663 18.997 2.66663 11.495C2.66663 7.35197 5.98663 4 10.08 4C12.5066 4 14.6533 5.17989 16 7.00337C17.3466 5.17989 19.5066 4 21.92 4C26.0133 4 29.3333 7.35197 29.3333 11.495C29.3333 18.997 21.5216 24.6844 17.8568 26.9399Z" stroke="#FF364B" stroke-width="2" stroke-linecap="round" stroke-linejoin="round"/>
<defs>
<clipPath id="clip0_29_328">
<rect width="13.3333" height="9.66669" fill="white" transform="translate(9.33337 9.33331)"/>
</clipPath>
</defs>
</svg>
