<svg width="50" height="50" viewBox="0 0 50 50" fill="none" xmlns="http://www.w3.org/2000/svg">
<mask id="mask0_16_105" style="mask-type:luminance" maskUnits="userSpaceOnUse" x="0" y="0" width="50" height="50">
<path d="M50 0H0V50H50V0Z" fill="white"/>
</mask>
<g mask="url(#mask0_16_105)">
<path d="M25 43.7501C14.6447 43.7501 6.2499 35.3553 6.2499 25C6.2499 14.6447 14.6447 6.24989 25 6.24989C35.3553 6.24989 43.7501 14.6447 43.7501 25C43.7501 35.3553 35.3553 43.7501 25 43.7501Z" fill="#001960"/>
<path d="M25 43.7501C14.6447 43.7501 6.2499 35.3553 6.2499 25C6.2499 14.6447 14.6447 6.24989 25 6.24989C35.3553 6.24989 43.7501 14.6447 43.7501 25C43.7501 35.3553 35.3553 43.7501 25 43.7501Z" fill="#001960"/>
<path d="M21.0278 19.791C21.0278 17.6007 22.8038 15.8195 24.9865 15.8195C27.1693 15.8195 28.945 17.601 28.945 19.791C28.945 21.981 27.1693 23.7627 24.9865 23.7627C22.8038 23.7627 21.0278 21.981 21.0278 19.791ZM31.277 32.3562C29.3928 33.4602 27.242 34.0495 25 34.0495C22.758 34.0495 20.6073 33.4602 18.723 32.3562C18.7045 32.16 18.6945 31.9612 18.6945 31.76C18.6945 28.283 21.523 25.4545 25 25.4545C28.4768 25.4545 31.3055 28.283 31.3055 31.76C31.3055 31.9612 31.2958 32.1597 31.277 32.3562Z" stroke="white" stroke-width="2" stroke-linecap="round"/>
</g>
</svg>
