<svg width="30" height="30" viewBox="0 0 30 30" fill="none" xmlns="http://www.w3.org/2000/svg">
<path d="M9.375 20C7.64911 20 6.25 21.3991 6.25 23.125C6.25 24.8509 7.64911 26.25 9.375 26.25C11.1009 26.25 12.5 24.8509 12.5 23.125C12.5 21.3991 11.1009 20 9.375 20ZM9.375 20C10.8868 20 12.1479 21.0736 12.4375 22.5H18.75M9.375 20C7.87446 20 6.62094 21.0576 6.31918 22.468C5.5471 22.4253 5.0067 22.3252 4.54754 22.0913C3.84193 21.7317 3.26825 21.1581 2.90873 20.4525C2.5 19.6503 2.5 18.6002 2.5 16.5V9.75C2.5 7.6498 2.5 6.5997 2.90873 5.79754C3.26825 5.09193 3.84193 4.51825 4.54754 4.15873C5.34971 3.75 6.3998 3.75 8.5 3.75H12.75C14.8502 3.75 15.9003 3.75 16.7025 4.15873C17.4081 4.51825 17.9818 5.09193 18.3413 5.79754C18.75 6.5997 18.75 7.6498 18.75 9.75V22.5M18.75 22.5V12.2855C18.75 11.3217 18.75 10.8397 18.8811 10.451C19.1306 9.7113 19.7113 9.13063 20.451 8.88113C20.8397 8.75 21.3217 8.75 22.2855 8.75C22.7073 8.75 22.9182 8.75 23.1193 8.783C23.4993 8.84537 23.8598 8.99468 24.1726 9.21929C24.3381 9.33814 24.4873 9.48727 24.7855 9.78553L26.3284 11.3284C26.7608 11.7608 26.977 11.977 27.1316 12.2293C27.2687 12.453 27.3697 12.6968 27.4309 12.9519C27.5 13.2396 27.5 13.5454 27.5 14.1569V18.5C27.5 19.9001 27.5 20.6002 27.2275 21.135C26.9878 21.6054 26.6054 21.9878 26.135 22.2275C25.8248 22.3856 25.459 22.4519 24.9333 22.4798C24.636 21.0635 23.3797 20 21.875 20M18.75 22.5H18.8125C19.1021 21.0736 20.3632 20 21.875 20M21.875 20C20.1491 20 18.75 21.3991 18.75 23.125C18.75 24.8509 20.1491 26.25 21.875 26.25C23.6009 26.25 25 24.8509 25 23.125C25 21.3991 23.6009 20 21.875 20Z" stroke="#EEAC19" stroke-width="2" stroke-linecap="round" stroke-linejoin="round"/>
</svg>
