<svg width="16" height="16" viewBox="0 0 16 16" fill="none" xmlns="http://www.w3.org/2000/svg">
<path d="M8 5V7.99996M8 10.9925V11M14.75 6.19838V9.80161C14.75 10.1685 14.75 10.3519 14.7086 10.5246C14.6718 10.6776 14.6112 10.8239 14.529 10.9582C14.4362 11.1095 14.3065 11.2392 14.0471 11.4987L11.4987 14.0471C11.2392 14.3065 11.1095 14.4362 10.9582 14.529C10.8239 14.6112 10.6776 14.6718 10.5246 14.7086C10.3519 14.75 10.1685 14.75 9.80161 14.75H6.19839C5.8315 14.75 5.64806 14.75 5.47542 14.7086C5.32237 14.6718 5.17605 14.6112 5.04184 14.529C4.89047 14.4362 4.76076 14.3065 4.50133 14.0471L1.95294 11.4987C1.69352 11.2392 1.5638 11.1095 1.47104 10.9582C1.3888 10.8239 1.32819 10.6776 1.29145 10.5246C1.25 10.3519 1.25 10.1685 1.25 9.80161V6.19839C1.25 5.8315 1.25 5.64806 1.29145 5.47542C1.32819 5.32237 1.3888 5.17605 1.47104 5.04184C1.5638 4.89047 1.69352 4.76076 1.95294 4.50133L4.50133 1.95294C4.76076 1.69352 4.89047 1.5638 5.04184 1.47104C5.17605 1.3888 5.32237 1.32819 5.47542 1.29145C5.64806 1.25 5.8315 1.25 6.19838 1.25H9.80161C10.1685 1.25 10.3519 1.25 10.5246 1.29145C10.6776 1.32819 10.8239 1.3888 10.9582 1.47104C11.1095 1.5638 11.2392 1.69352 11.4987 1.95294L14.0471 4.50133C14.3065 4.76076 14.4362 4.89047 14.529 5.04184C14.6112 5.17605 14.6718 5.32237 14.7086 5.47542C14.75 5.64806 14.75 5.8315 14.75 6.19838Z" stroke="white" stroke-width="2" stroke-linecap="round" stroke-linejoin="round"/>
</svg>
